<svg xmlns="http://www.w3.org/2000/svg" xmlns:xlink="http://www.w3.org/1999/xlink" contentStyleType="text/css" data-diagram-type="CLASS" height="535px" preserveAspectRatio="none" style="width:642px;height:535px;background:#FFFFFF;" version="1.1" viewBox="0 0 642 535" width="642px" zoomAndPan="magnify"><defs/><g><!--class Contador--><g class="entity" data-entity="Contador" data-source-line="2" data-uid="ent0002" id="entity_Contador"><rect fill="#F1F1F1" height="112.3945" rx="2.5" ry="2.5" style="stroke:#181818;stroke-width:0.5;" width="143.4824" x="309.96" y="7"/><ellipse cx="349.2103" cy="23" fill="#A9DCDF" rx="11" ry="11" style="stroke:#181818;stroke-width:1;"/><path d="M344.3041,29 L347.4291,16.5938 L350.1635,16.5938 L353.3197,29 L351.1322,29 L350.4603,25.9844 L347.1635,25.9844 L346.476,29 L344.3041,29 Z M347.5541,24.25 L350.0697,24.25 L349.3197,20.9219 Q349.1322,20.0938 348.9916,19.4219 Q348.8666,18.75 348.8041,18.4375 Q348.7572,18.75 348.6166,19.4219 Q348.4916,20.0938 348.3041,20.9063 L347.5541,24.25 Z " fill="#000000"/><text fill="#000000" font-family="sans-serif" font-size="14" font-style="italic" lengthAdjust="spacing" textLength="57.5928" x="368.5993" y="28.0825">Contador</text><line style="stroke:#181818;stroke-width:0.5;" x1="310.96" x2="452.4424" y1="39" y2="39"/><rect fill="none" height="6" style="stroke:#C82930;stroke-width:1;" width="6" x="317.96" y="49.5493"/><text fill="#000000" font-family="sans-serif" font-size="14" lengthAdjust="spacing" textLength="59.1377" x="329.96" y="56.1318">id : String</text><rect fill="none" height="6" style="stroke:#C82930;stroke-width:1;" width="6" x="317.96" y="65.6479"/><text fill="#000000" font-family="sans-serif" font-size="14" lengthAdjust="spacing" textLength="88.71" x="329.96" y="72.2305">cliente : String</text><rect fill="none" height="6" style="stroke:#C82930;stroke-width:1;" width="6" x="317.96" y="81.7466"/><text fill="#000000" font-family="sans-serif" font-size="14" lengthAdjust="spacing" textLength="110.5166" x="329.96" y="88.3291">consumo : double</text><line style="stroke:#181818;stroke-width:0.5;" x1="310.96" x2="452.4424" y1="95.2959" y2="95.2959"/><ellipse cx="320.96" cy="108.8452" fill="#84BE84" rx="3" ry="3" style="stroke:#038048;stroke-width:1;"/><text fill="#000000" font-family="sans-serif" font-size="14" lengthAdjust="spacing" textLength="117.4824" x="329.96" y="112.4277">calcularConsumo()</text></g><!--class ContadorEletricidade--><g class="entity" data-entity="ContadorEletricidade" data-source-line="9" data-uid="ent0003" id="entity_ContadorEletricidade"><rect fill="#F1F1F1" height="64.0986" rx="2.5" ry="2.5" style="stroke:#181818;stroke-width:0.5;" width="178.1406" x="166.63" y="195.5"/><ellipse cx="188.5584" cy="211.5" fill="#A9DCDF" rx="11" ry="11" style="stroke:#181818;stroke-width:1;"/><path d="M183.6522,217.5 L186.7772,205.0938 L189.5115,205.0938 L192.6678,217.5 L190.4803,217.5 L189.8084,214.4844 L186.5115,214.4844 L185.824,217.5 L183.6522,217.5 Z M186.9022,212.75 L189.4178,212.75 L188.6678,209.4219 Q188.4803,208.5938 188.3397,207.9219 Q188.2147,207.25 188.1522,206.9375 Q188.1053,207.25 187.9647,207.9219 Q187.8397,208.5938 187.6522,209.4063 L186.9022,212.75 Z " fill="#000000"/><text fill="#000000" font-family="sans-serif" font-size="14" font-style="italic" lengthAdjust="spacing" textLength="130.7441" x="204.0981" y="216.5825">ContadorEletricidade</text><line style="stroke:#181818;stroke-width:0.5;" x1="167.63" x2="343.7706" y1="227.5" y2="227.5"/><rect fill="none" height="6" style="stroke:#C82930;stroke-width:1;" width="6" x="174.63" y="238.0493"/><text fill="#000000" font-family="sans-serif" font-size="14" lengthAdjust="spacing" textLength="152.1406" x="186.63" y="244.6318">static totalEletricidade=0</text><line style="stroke:#181818;stroke-width:0.5;" x1="167.63" x2="343.7706" y1="251.5986" y2="251.5986"/></g><!--class ContadorGas--><g class="entity" data-entity="ContadorGas" data-source-line="13" data-uid="ent0004" id="entity_ContadorGas"><rect fill="#F1F1F1" height="96.2959" rx="2.5" ry="2.5" style="stroke:#181818;stroke-width:0.5;" width="255.1885" x="380.11" y="179.4"/><ellipse cx="461.82" cy="195.4" fill="#ADD1B2" rx="11" ry="11" style="stroke:#181818;stroke-width:1;"/><path d="M462.0543,202.0719 Q460.8512,202.0719 459.9606,201.6188 Q459.0856,201.1656 458.6012,200.3531 Q458.1168,199.525 458.1168,198.4 L458.1168,192.9938 Q458.1168,191.8688 458.6012,191.0563 Q459.0856,190.2281 459.9606,189.775 Q460.8512,189.3219 462.0543,189.3219 Q463.2418,189.3219 464.1168,189.775 Q465.0075,190.2281 465.5075,191.0563 Q466.0075,191.8688 466.0075,192.9938 L463.8512,192.9938 Q463.8512,192.1188 463.3825,191.6656 Q462.9293,191.1969 462.0543,191.1969 Q461.195,191.1969 460.7106,191.6656 Q460.2418,192.1188 460.2418,192.9938 L460.2418,198.4 Q460.2418,199.2594 460.7106,199.7281 Q461.195,200.1969 462.0543,200.1969 Q462.9293,200.1969 463.3825,199.7281 Q463.8512,199.2594 463.8512,198.4 L466.0075,198.4 Q466.0075,199.525 465.5075,200.3531 Q465.0075,201.1656 464.1168,201.6188 Q463.2418,202.0719 462.0543,202.0719 Z " fill="#000000"/><text fill="#000000" font-family="sans-serif" font-size="14" lengthAdjust="spacing" textLength="83.2686" x="482.32" y="200.4825">ContadorGas</text><line style="stroke:#181818;stroke-width:0.5;" x1="381.11" x2="634.2985" y1="211.4" y2="211.4"/><rect fill="none" height="6" style="stroke:#C82930;stroke-width:1;" width="6" x="388.11" y="221.9493"/><text fill="#000000" font-family="sans-serif" font-size="14" lengthAdjust="spacing" textLength="229.1885" x="400.11" y="228.5318">custoUnitario=0.8 : final static double</text><line style="stroke:#181818;stroke-width:0.5;" x1="381.11" x2="634.2985" y1="235.4986" y2="235.4986"/><ellipse cx="391.11" cy="249.0479" fill="#84BE84" rx="3" ry="3" style="stroke:#038048;stroke-width:1;"/><text fill="#000000" font-family="sans-serif" font-size="14" lengthAdjust="spacing" textLength="117.4824" x="400.11" y="252.6305">calcularConsumo()</text><ellipse cx="391.11" cy="265.1466" fill="#84BE84" rx="3" ry="3" style="stroke:#038048;stroke-width:1;"/><text fill="#000000" font-family="sans-serif" font-size="14" lengthAdjust="spacing" textLength="112.8135" x="400.11" y="268.7291">setCustoUnitario()</text></g><!--class EletricidadeSimples--><g class="entity" data-entity="EletricidadeSimples" data-source-line="19" data-uid="ent0005" id="entity_EletricidadeSimples"><rect fill="#F1F1F1" height="160.6904" rx="2.5" ry="2.5" style="stroke:#181818;stroke-width:0.5;" width="233.4092" x="7" y="351.79"/><ellipse cx="57.9824" cy="367.79" fill="#ADD1B2" rx="11" ry="11" style="stroke:#181818;stroke-width:1;"/><path d="M58.2168,374.4619 Q57.0137,374.4619 56.123,374.0088 Q55.248,373.5556 54.7637,372.7431 Q54.2793,371.915 54.2793,370.79 L54.2793,365.3838 Q54.2793,364.2588 54.7637,363.4463 Q55.248,362.6181 56.123,362.165 Q57.0137,361.7119 58.2168,361.7119 Q59.4043,361.7119 60.2793,362.165 Q61.1699,362.6181 61.6699,363.4463 Q62.1699,364.2588 62.1699,365.3838 L60.0137,365.3838 Q60.0137,364.5088 59.5449,364.0556 Q59.0918,363.5869 58.2168,363.5869 Q57.3574,363.5869 56.873,364.0556 Q56.4043,364.5088 56.4043,365.3838 L56.4043,370.79 Q56.4043,371.6494 56.873,372.1181 Q57.3574,372.5869 58.2168,372.5869 Q59.0918,372.5869 59.5449,372.1181 Q60.0137,371.6494 60.0137,370.79 L62.1699,370.79 Q62.1699,371.915 61.6699,372.7431 Q61.1699,373.5556 60.2793,374.0088 Q59.4043,374.4619 58.2168,374.4619 Z " fill="#000000"/><text fill="#000000" font-family="sans-serif" font-size="14" lengthAdjust="spacing" textLength="122.9443" x="78.4824" y="372.8725">EletricidadeSimples</text><line style="stroke:#181818;stroke-width:0.5;" x1="8" x2="239.4092" y1="383.79" y2="383.79"/><rect fill="none" height="6" style="stroke:#C82930;stroke-width:1;" width="6" x="15" y="394.3393"/><text fill="#000000" font-family="sans-serif" font-size="14" lengthAdjust="spacing" textLength="175.9092" x="27" y="400.9218">potenciaContratada : double</text><rect fill="none" height="6" style="stroke:#C82930;stroke-width:1;" width="6" x="15" y="410.4379"/><text fill="#000000" font-family="sans-serif" font-size="14" lengthAdjust="spacing" textLength="192.6367" x="27" y="417.0205">final static double potencia=6.9</text><rect fill="none" height="6" style="stroke:#C82930;stroke-width:1;" width="6" x="15" y="426.5366"/><text fill="#000000" font-family="sans-serif" font-size="14" lengthAdjust="spacing" textLength="207.4092" x="27" y="433.1191">static double custoUnitario1=0.13</text><rect fill="none" height="6" style="stroke:#C82930;stroke-width:1;" width="6" x="15" y="442.6352"/><text fill="#000000" font-family="sans-serif" font-size="14" lengthAdjust="spacing" textLength="207.4092" x="27" y="449.2177">static double custoUnitario2=0.16</text><line style="stroke:#181818;stroke-width:0.5;" x1="8" x2="239.4092" y1="456.1845" y2="456.1845"/><ellipse cx="18" cy="469.7338" fill="#84BE84" rx="3" ry="3" style="stroke:#038048;stroke-width:1;"/><text fill="#000000" font-family="sans-serif" font-size="14" lengthAdjust="spacing" textLength="117.4824" x="27" y="473.3164">calcularConsumo()</text><ellipse cx="18" cy="485.8325" fill="#84BE84" rx="3" ry="3" style="stroke:#038048;stroke-width:1;"/><text fill="#000000" font-family="sans-serif" font-size="14" lengthAdjust="spacing" textLength="120.5996" x="27" y="489.415">setCustoUnitario1()</text><ellipse cx="18" cy="501.9311" fill="#84BE84" rx="3" ry="3" style="stroke:#038048;stroke-width:1;"/><text fill="#000000" font-family="sans-serif" font-size="14" lengthAdjust="spacing" textLength="120.5996" x="27" y="505.5136">setCustoUnitario2()</text></g><!--class EletricidadeBihorario--><g class="entity" data-entity="EletricidadeBihorario" data-source-line="30" data-uid="ent0006" id="entity_EletricidadeBihorario"><rect fill="#F1F1F1" height="192.8877" rx="2.5" ry="2.5" style="stroke:#181818;stroke-width:0.5;" width="224.8301" x="275.29" y="335.69"/><ellipse cx="318.9331" cy="351.69" fill="#ADD1B2" rx="11" ry="11" style="stroke:#181818;stroke-width:1;"/><path d="M319.1675,358.3619 Q317.9644,358.3619 317.0737,357.9088 Q316.1987,357.4556 315.7144,356.6431 Q315.23,355.815 315.23,354.69 L315.23,349.2838 Q315.23,348.1588 315.7144,347.3463 Q316.1987,346.5181 317.0737,346.065 Q317.9644,345.6119 319.1675,345.6119 Q320.355,345.6119 321.23,346.065 Q322.1206,346.5181 322.6206,347.3463 Q323.1206,348.1588 323.1206,349.2838 L320.9644,349.2838 Q320.9644,348.4088 320.4956,347.9556 Q320.0425,347.4869 319.1675,347.4869 Q318.3081,347.4869 317.8237,347.9556 Q317.355,348.4088 317.355,349.2838 L317.355,354.69 Q317.355,355.5494 317.8237,356.0181 Q318.3081,356.4869 319.1675,356.4869 Q320.0425,356.4869 320.4956,356.0181 Q320.9644,355.5494 320.9644,354.69 L323.1206,354.69 Q323.1206,355.815 322.6206,356.6431 Q322.1206,357.4556 321.23,357.9088 Q320.355,358.3619 319.1675,358.3619 Z " fill="#000000"/><text fill="#000000" font-family="sans-serif" font-size="14" lengthAdjust="spacing" textLength="129.1787" x="339.2983" y="356.7725">EletricidadeBihorario</text><line style="stroke:#181818;stroke-width:0.5;" x1="276.29" x2="499.1201" y1="367.69" y2="367.69"/><rect fill="none" height="6" style="stroke:#C82930;stroke-width:1;" width="6" x="283.29" y="378.2393"/><text fill="#000000" font-family="sans-serif" font-size="14" lengthAdjust="spacing" textLength="110.5234" x="295.29" y="384.8218">double consumo1</text><rect fill="none" height="6" style="stroke:#C82930;stroke-width:1;" width="6" x="283.29" y="394.3379"/><text fill="#000000" font-family="sans-serif" font-size="14" lengthAdjust="spacing" textLength="110.5234" x="295.29" y="400.9205">double consumo2</text><rect fill="none" height="6" style="stroke:#C82930;stroke-width:1;" width="6" x="283.29" y="410.4366"/><text fill="#000000" font-family="sans-serif" font-size="14" lengthAdjust="spacing" textLength="175.9092" x="295.29" y="417.0191">potenciaContratada : double</text><rect fill="none" height="6" style="stroke:#C82930;stroke-width:1;" width="6" x="283.29" y="426.5352"/><text fill="#000000" font-family="sans-serif" font-size="14" lengthAdjust="spacing" textLength="192.6367" x="295.29" y="433.1177">final static double potencia=6.9</text><rect fill="none" height="6" style="stroke:#C82930;stroke-width:1;" width="6" x="283.29" y="442.6338"/><text fill="#000000" font-family="sans-serif" font-size="14" lengthAdjust="spacing" textLength="177.8301" x="295.29" y="449.2164">final static custoVazio=0.066</text><rect fill="none" height="6" style="stroke:#C82930;stroke-width:1;" width="6" x="283.29" y="458.7325"/><text fill="#000000" font-family="sans-serif" font-size="14" lengthAdjust="spacing" textLength="198.8301" x="295.29" y="465.315">final static custoForaVazio=0.14</text><line style="stroke:#181818;stroke-width:0.5;" x1="276.29" x2="499.1201" y1="472.2818" y2="472.2818"/><ellipse cx="286.29" cy="485.8311" fill="#84BE84" rx="3" ry="3" style="stroke:#038048;stroke-width:1;"/><text fill="#000000" font-family="sans-serif" font-size="14" lengthAdjust="spacing" textLength="117.4824" x="295.29" y="489.4136">calcularConsumo()</text><ellipse cx="286.29" cy="501.9297" fill="#84BE84" rx="3" ry="3" style="stroke:#038048;stroke-width:1;"/><text fill="#000000" font-family="sans-serif" font-size="14" lengthAdjust="spacing" textLength="120.5996" x="295.29" y="505.5123">setCustoUnitario1()</text><ellipse cx="286.29" cy="518.0284" fill="#84BE84" rx="3" ry="3" style="stroke:#038048;stroke-width:1;"/><text fill="#000000" font-family="sans-serif" font-size="14" lengthAdjust="spacing" textLength="120.5996" x="295.29" y="521.6109">setCustoUnitario2()</text></g><!--reverse link Contador to ContadorGas--><g class="link" data-entity-1="Contador" data-entity-2="ContadorGas" data-source-line="43" data-uid="lnk7" id="link_Contador_ContadorGas"><path codeLine="43" d="M435.7538,133.8339 C450.7338,153.1139 456.34,160.36 470.77,178.96" fill="none" id="Contador-backto-ContadorGas" style="stroke:#181818;stroke-width:1;"/><polygon fill="none" points="424.71,119.62,431.0158,137.5152,440.4917,130.1526,424.71,119.62" style="stroke:#181818;stroke-width:1;"/></g><!--reverse link Contador to ContadorEletricidade--><g class="link" data-entity-1="Contador" data-entity-2="ContadorEletricidade" data-source-line="44" data-uid="lnk8" id="link_Contador_ContadorEletricidade"><path codeLine="44" d="M327.6528,133.839 C308.1228,158.999 296.77,173.64 280.17,195.02" fill="none" id="Contador-backto-ContadorEletricidade" style="stroke:#181818;stroke-width:1;"/><polygon fill="none" points="338.69,119.62,322.9131,130.1599,332.3924,137.5181,338.69,119.62" style="stroke:#181818;stroke-width:1;"/></g><!--reverse link ContadorEletricidade to EletricidadeBihorario--><g class="link" data-entity-1="ContadorEletricidade" data-entity-2="EletricidadeBihorario" data-source-line="45" data-uid="lnk9" id="link_ContadorEletricidade_EletricidadeBihorario"><path codeLine="45" d="M285.869,274.8395 C299.179,295.2595 307.51,308.06 325.32,335.39" fill="none" id="ContadorEletricidade-backto-EletricidadeBihorario" style="stroke:#181818;stroke-width:1;"/><polygon fill="none" points="276.04,259.76,280.8425,278.1158,290.8955,271.5632,276.04,259.76" style="stroke:#181818;stroke-width:1;"/></g><!--reverse link ContadorEletricidade to EletricidadeSimples--><g class="link" data-entity-1="ContadorEletricidade" data-entity-2="EletricidadeSimples" data-source-line="46" data-uid="lnk10" id="link_ContadorEletricidade_EletricidadeSimples"><path codeLine="46" d="M225.5413,274.8397 C209.6313,299.2497 196.6,319.25 175.71,351.32" fill="none" id="ContadorEletricidade-backto-EletricidadeSimples" style="stroke:#181818;stroke-width:1;"/><polygon fill="none" points="235.37,259.76,220.5148,271.5635,230.5679,278.1159,235.37,259.76" style="stroke:#181818;stroke-width:1;"/></g><!--SRC=[hLBDJiCm3BxdAN84JPsQWYf0z485FC04Toy9O2bBfiIzyFFk9EtAMf5DE-mO-_FtunZMWJn8uj902Bnrba0v_yKAZehVyHLvjE_n9GrgItfMSZPq6nTBodLhezc2Ip2oC-3ReNLnoNuOWxp6ez6HIQ82fPDU822Kd1o1cVQQCf7CPvyXf17P1N8l5WaykgPStaGlRsZ1Z6H7Z2ruqDHE2GQtWz3Km0etMwDxmQqZRIL2yk4XMe5z-Y8d_JVHrClRVSXTS-PVn03YwZYcIfYQdHX8PAlLePmF-E5yGgIae_f0B_vLgdDiOmRfWxx2P_-JPLrd-q_HuOWHrsTPn7XJ_FwxAAONTg0pNHdB5GTuThCdudSNzmi0]--></g></svg>