<svg xmlns="http://www.w3.org/2000/svg" xmlns:xlink="http://www.w3.org/1999/xlink" contentStyleType="text/css" data-diagram-type="CLASS" height="330px" preserveAspectRatio="none" style="width:734px;height:330px;background:#FFFFFF;" version="1.1" viewBox="0 0 734 330" width="734px" zoomAndPan="magnify"><defs/><g><!--class Trabalhador--><g class="entity" data-entity="Trabalhador" data-source-line="2" data-uid="ent0002" id="entity_Trabalhador"><rect fill="#F1F1F1" height="112.3945" rx="2.5" ry="2.5" style="stroke:#181818;stroke-width:0.5;" width="211.2061" x="264.74" y="7"/><ellipse cx="328.3484" cy="23" fill="#ADD1B2" rx="11" ry="11" style="stroke:#181818;stroke-width:1;"/><path d="M328.5828,29.6719 Q327.3796,29.6719 326.489,29.2188 Q325.614,28.7656 325.1296,27.9531 Q324.6453,27.125 324.6453,26 L324.6453,20.5938 Q324.6453,19.4688 325.1296,18.6563 Q325.614,17.8281 326.489,17.375 Q327.3796,16.9219 328.5828,16.9219 Q329.7703,16.9219 330.6453,17.375 Q331.5359,17.8281 332.0359,18.6563 Q332.5359,19.4688 332.5359,20.5938 L330.3796,20.5938 Q330.3796,19.7188 329.9109,19.2656 Q329.4578,18.7969 328.5828,18.7969 Q327.7234,18.7969 327.239,19.2656 Q326.7703,19.7188 326.7703,20.5938 L326.7703,26 Q326.7703,26.8594 327.239,27.3281 Q327.7234,27.7969 328.5828,27.7969 Q329.4578,27.7969 329.9109,27.3281 Q330.3796,26.8594 330.3796,26 L332.5359,26 Q332.5359,27.125 332.0359,27.9531 Q331.5359,28.7656 330.6453,29.2188 Q329.7703,29.6719 328.5828,29.6719 Z " fill="#000000"/><text fill="#000000" font-family="sans-serif" font-size="14" lengthAdjust="spacing" textLength="75.4893" x="348.8484" y="28.0825">Trabalhador</text><line style="stroke:#181818;stroke-width:0.5;" x1="265.74" x2="474.9461" y1="39" y2="39"/><rect fill="none" height="6" style="stroke:#C82930;stroke-width:1;" width="6" x="272.74" y="49.5493"/><text fill="#000000" font-family="sans-serif" font-size="14" lengthAdjust="spacing" textLength="83.2617" x="284.74" y="56.1318">nome : String</text><line style="stroke:#181818;stroke-width:0.5;" x1="265.74" x2="474.9461" y1="63.0986" y2="63.0986"/><ellipse cx="275.74" cy="76.6479" fill="#84BE84" rx="3" ry="3" style="stroke:#038048;stroke-width:1;"/><text fill="#000000" font-family="sans-serif" font-size="14" lengthAdjust="spacing" textLength="114.3721" x="284.74" y="80.2305">getNome() : String</text><ellipse cx="275.74" cy="92.7466" fill="#84BE84" rx="3" ry="3" style="stroke:#038048;stroke-width:1;"/><text fill="#000000" font-family="sans-serif" font-size="14" lengthAdjust="spacing" textLength="185.2061" x="284.74" y="96.3291">calcularVencimento() : double</text><ellipse cx="275.74" cy="108.8452" fill="#84BE84" rx="3" ry="3" style="stroke:#038048;stroke-width:1;"/><text fill="#000000" font-family="sans-serif" font-size="14" lengthAdjust="spacing" textLength="105.8135" x="284.74" y="112.4277">toString() : String</text></g><!--class TrabalhadorPeca--><g class="entity" data-entity="TrabalhadorPeca" data-source-line="9" data-uid="ent0003" id="entity_TrabalhadorPeca"><rect fill="#F1F1F1" height="144.5918" rx="2.5" ry="2.5" style="stroke:#181818;stroke-width:0.5;" width="216.6953" x="7" y="179.4"/><ellipse cx="57.3979" cy="195.4" fill="#ADD1B2" rx="11" ry="11" style="stroke:#181818;stroke-width:1;"/><path d="M57.6323,202.0719 Q56.4292,202.0719 55.5386,201.6188 Q54.6636,201.1656 54.1792,200.3531 Q53.6948,199.525 53.6948,198.4 L53.6948,192.9938 Q53.6948,191.8688 54.1792,191.0563 Q54.6636,190.2281 55.5386,189.775 Q56.4292,189.3219 57.6323,189.3219 Q58.8198,189.3219 59.6948,189.775 Q60.5854,190.2281 61.0854,191.0563 Q61.5854,191.8688 61.5854,192.9938 L59.4292,192.9938 Q59.4292,192.1188 58.9604,191.6656 Q58.5073,191.1969 57.6323,191.1969 Q56.7729,191.1969 56.2886,191.6656 Q55.8198,192.1188 55.8198,192.9938 L55.8198,198.4 Q55.8198,199.2594 56.2886,199.7281 Q56.7729,200.1969 57.6323,200.1969 Q58.5073,200.1969 58.9604,199.7281 Q59.4292,199.2594 59.4292,198.4 L61.5854,198.4 Q61.5854,199.525 61.0854,200.3531 Q60.5854,201.1656 59.6948,201.6188 Q58.8198,202.0719 57.6323,202.0719 Z " fill="#000000"/><text fill="#000000" font-family="sans-serif" font-size="14" lengthAdjust="spacing" textLength="107.3994" x="77.8979" y="200.4825">TrabalhadorPeca</text><line style="stroke:#181818;stroke-width:0.5;" x1="8" x2="222.6953" y1="211.4" y2="211.4"/><rect fill="none" height="6" style="stroke:#C82930;stroke-width:1;" width="6" x="15" y="221.9493"/><text fill="#000000" font-family="sans-serif" font-size="14" lengthAdjust="spacing" textLength="147.8545" x="27" y="228.5318">numeroPecasTipo1 : int</text><rect fill="none" height="6" style="stroke:#C82930;stroke-width:1;" width="6" x="15" y="238.0479"/><text fill="#000000" font-family="sans-serif" font-size="14" lengthAdjust="spacing" textLength="147.8545" x="27" y="244.6305">numeroPecasTipo2 : int</text><rect fill="none" height="6" style="stroke:#C82930;stroke-width:1;" width="6" x="15" y="254.1466"/><text fill="#000000" font-family="sans-serif" font-size="14" lengthAdjust="spacing" textLength="190.6953" x="27" y="260.7291">pagamentoPecaTipo1 : double</text><rect fill="none" height="6" style="stroke:#C82930;stroke-width:1;" width="6" x="15" y="270.2452"/><text fill="#000000" font-family="sans-serif" font-size="14" lengthAdjust="spacing" textLength="190.6953" x="27" y="276.8277">pagamentoPecaTipo2 : double</text><line style="stroke:#181818;stroke-width:0.5;" x1="8" x2="222.6953" y1="283.7945" y2="283.7945"/><ellipse cx="18" cy="297.3438" fill="#84BE84" rx="3" ry="3" style="stroke:#038048;stroke-width:1;"/><text fill="#000000" font-family="sans-serif" font-size="14" lengthAdjust="spacing" textLength="185.2061" x="27" y="300.9264">calcularVencimento() : double</text><ellipse cx="18" cy="313.4425" fill="#84BE84" rx="3" ry="3" style="stroke:#038048;stroke-width:1;"/><text fill="#000000" font-family="sans-serif" font-size="14" lengthAdjust="spacing" textLength="105.8135" x="27" y="317.025">toString() : String</text></g><!--class TrabalhadorComissao--><g class="entity" data-entity="TrabalhadorComissao" data-source-line="18" data-uid="ent0004" id="entity_TrabalhadorComissao"><rect fill="#F1F1F1" height="128.4932" rx="2.5" ry="2.5" style="stroke:#181818;stroke-width:0.5;" width="223.668" x="258.51" y="187.45"/><ellipse cx="297.7819" cy="203.45" fill="#ADD1B2" rx="11" ry="11" style="stroke:#181818;stroke-width:1;"/><path d="M298.0163,210.1219 Q296.8131,210.1219 295.9225,209.6688 Q295.0475,209.2156 294.5631,208.4031 Q294.0788,207.575 294.0788,206.45 L294.0788,201.0438 Q294.0788,199.9188 294.5631,199.1063 Q295.0475,198.2781 295.9225,197.825 Q296.8131,197.3719 298.0163,197.3719 Q299.2038,197.3719 300.0788,197.825 Q300.9694,198.2781 301.4694,199.1063 Q301.9694,199.9188 301.9694,201.0438 L299.8131,201.0438 Q299.8131,200.1688 299.3444,199.7156 Q298.8913,199.2469 298.0163,199.2469 Q297.1569,199.2469 296.6725,199.7156 Q296.2038,200.1688 296.2038,201.0438 L296.2038,206.45 Q296.2038,207.3094 296.6725,207.7781 Q297.1569,208.2469 298.0163,208.2469 Q298.8913,208.2469 299.3444,207.7781 Q299.8131,207.3094 299.8131,206.45 L301.9694,206.45 Q301.9694,207.575 301.4694,208.4031 Q300.9694,209.2156 300.0788,209.6688 Q299.2038,210.1219 298.0163,210.1219 Z " fill="#000000"/><text fill="#000000" font-family="sans-serif" font-size="14" lengthAdjust="spacing" textLength="137.7305" x="317.1756" y="208.5325">TrabalhadorComissao</text><line style="stroke:#181818;stroke-width:0.5;" x1="259.51" x2="481.178" y1="219.45" y2="219.45"/><rect fill="none" height="6" style="stroke:#C82930;stroke-width:1;" width="6" x="266.51" y="229.9993"/><text fill="#000000" font-family="sans-serif" font-size="14" lengthAdjust="spacing" textLength="126.8613" x="278.51" y="236.5818">salarioBase : double</text><rect fill="none" height="6" style="stroke:#C82930;stroke-width:1;" width="6" x="266.51" y="246.0979"/><text fill="#000000" font-family="sans-serif" font-size="14" lengthAdjust="spacing" textLength="98.8545" x="278.51" y="252.6805">vendas : double</text><rect fill="none" height="6" style="stroke:#C82930;stroke-width:1;" width="6" x="266.51" y="262.1966"/><text fill="#000000" font-family="sans-serif" font-size="14" lengthAdjust="spacing" textLength="197.668" x="278.51" y="268.7791">percentagemComissao : double</text><line style="stroke:#181818;stroke-width:0.5;" x1="259.51" x2="481.178" y1="275.7459" y2="275.7459"/><ellipse cx="269.51" cy="289.2952" fill="#84BE84" rx="3" ry="3" style="stroke:#038048;stroke-width:1;"/><text fill="#000000" font-family="sans-serif" font-size="14" lengthAdjust="spacing" textLength="185.2061" x="278.51" y="292.8777">calcularVencimento() : double</text><ellipse cx="269.51" cy="305.3938" fill="#84BE84" rx="3" ry="3" style="stroke:#038048;stroke-width:1;"/><text fill="#000000" font-family="sans-serif" font-size="14" lengthAdjust="spacing" textLength="105.8135" x="278.51" y="308.9764">toString() : String</text></g><!--class TrabalhadorHora--><g class="entity" data-entity="TrabalhadorHora" data-source-line="26" data-uid="ent0005" id="entity_TrabalhadorHora"><rect fill="#F1F1F1" height="112.3945" rx="2.5" ry="2.5" style="stroke:#181818;stroke-width:0.5;" width="211.2061" x="516.74" y="195.5"/><ellipse cx="565.176" cy="211.5" fill="#ADD1B2" rx="11" ry="11" style="stroke:#181818;stroke-width:1;"/><path d="M565.4104,218.1719 Q564.2073,218.1719 563.3167,217.7188 Q562.4417,217.2656 561.9573,216.4531 Q561.4729,215.625 561.4729,214.5 L561.4729,209.0938 Q561.4729,207.9688 561.9573,207.1563 Q562.4417,206.3281 563.3167,205.875 Q564.2073,205.4219 565.4104,205.4219 Q566.5979,205.4219 567.4729,205.875 Q568.3635,206.3281 568.8635,207.1563 Q569.3635,207.9688 569.3635,209.0938 L567.2073,209.0938 Q567.2073,208.2188 566.7385,207.7656 Q566.2854,207.2969 565.4104,207.2969 Q564.551,207.2969 564.0667,207.7656 Q563.5979,208.2188 563.5979,209.0938 L563.5979,214.5 Q563.5979,215.3594 564.0667,215.8281 Q564.551,216.2969 565.4104,216.2969 Q566.2854,216.2969 566.7385,215.8281 Q567.2073,215.3594 567.2073,214.5 L569.3635,214.5 Q569.3635,215.625 568.8635,216.4531 Q568.3635,217.2656 567.4729,217.7188 Q566.5979,218.1719 565.4104,218.1719 Z " fill="#000000"/><text fill="#000000" font-family="sans-serif" font-size="14" lengthAdjust="spacing" textLength="105.834" x="585.676" y="216.5825">TrabalhadorHora</text><line style="stroke:#181818;stroke-width:0.5;" x1="517.74" x2="726.9461" y1="227.5" y2="227.5"/><rect fill="none" height="6" style="stroke:#C82930;stroke-width:1;" width="6" x="524.74" y="238.0493"/><text fill="#000000" font-family="sans-serif" font-size="14" lengthAdjust="spacing" textLength="154.1094" x="536.74" y="244.6318">pagamentoHora : double</text><rect fill="none" height="6" style="stroke:#C82930;stroke-width:1;" width="6" x="524.74" y="254.1479"/><text fill="#000000" font-family="sans-serif" font-size="14" lengthAdjust="spacing" textLength="111.2686" x="536.74" y="260.7305">numeroHoras : int</text><line style="stroke:#181818;stroke-width:0.5;" x1="517.74" x2="726.9461" y1="267.6973" y2="267.6973"/><ellipse cx="527.74" cy="281.2466" fill="#84BE84" rx="3" ry="3" style="stroke:#038048;stroke-width:1;"/><text fill="#000000" font-family="sans-serif" font-size="14" lengthAdjust="spacing" textLength="185.2061" x="536.74" y="284.8291">calcularVencimento() : double</text><ellipse cx="527.74" cy="297.3452" fill="#84BE84" rx="3" ry="3" style="stroke:#038048;stroke-width:1;"/><text fill="#000000" font-family="sans-serif" font-size="14" lengthAdjust="spacing" textLength="105.8135" x="536.74" y="300.9277">toString() : String</text></g><!--reverse link Trabalhador to TrabalhadorPeca--><g class="link" data-entity-1="Trabalhador" data-entity-2="TrabalhadorPeca" data-source-line="33" data-uid="lnk6" id="link_Trabalhador_TrabalhadorPeca"><path codeLine="33" d="M279.9994,130.2736 C254.4494,148.9536 240.11,159.45 213.11,179.19" fill="none" id="Trabalhador-backto-TrabalhadorPeca" style="stroke:#181818;stroke-width:1;"/><polygon fill="none" points="294.53,119.65,276.4582,125.43,283.5405,135.1171,294.53,119.65" style="stroke:#181818;stroke-width:1;"/></g><!--reverse link Trabalhador to TrabalhadorComissao--><g class="link" data-entity-1="Trabalhador" data-entity-2="TrabalhadorComissao" data-source-line="34" data-uid="lnk7" id="link_Trabalhador_TrabalhadorComissao"><path codeLine="34" d="M370.35,137.65 C370.35,158.91 370.35,165.32 370.35,187.27" fill="none" id="Trabalhador-backto-TrabalhadorComissao" style="stroke:#181818;stroke-width:1;"/><polygon fill="none" points="370.35,119.65,364.35,137.65,376.35,137.65,370.35,119.65" style="stroke:#181818;stroke-width:1;"/></g><!--reverse link Trabalhador to TrabalhadorHora--><g class="link" data-entity-1="Trabalhador" data-entity-2="TrabalhadorHora" data-source-line="35" data-uid="lnk8" id="link_Trabalhador_TrabalhadorHora"><path codeLine="35" d="M459.7382,130.3585 C491.9482,154.1985 515.05,171.29 547.28,195.14" fill="none" id="Trabalhador-backto-TrabalhadorHora" style="stroke:#181818;stroke-width:1;"/><polygon fill="none" points="445.27,119.65,456.1687,135.1812,463.3077,125.5358,445.27,119.65" style="stroke:#181818;stroke-width:1;"/></g><!--SRC=[jP8n3u9038LtViMD6iCWet7InScOIDpBqU0bTrTpFLpK_-u1Ge0G5dLzVMs_lbHgO1QfWmpq5N9ouX494GjB1iL6dBrJjWZAIXJeZq5SB8Uo12rB3Uw2LYg3rbFjoAdCDDOEJuszt_cA8ZdUV489xVRIeADAu5JTQ1qQbVLJfQHNka41DK5LRViwa8bwCWJztIbxCeePw7CEGvYgQ0UCGw8xsXnuH8bEXjrGeEd6_0dpGAvDlCkcrWP0JUALpbtONr3qVstxZEFn2ymQsaHcJHLgz0O0]--></g></svg>